<mxfile host="app.diagrams.net" agent="Mozilla/5.0 (Windows NT 10.0; Win64; x64) AppleWebKit/537.36 (KHTML, like Gecko) Chrome/134.0.0.0 Safari/537.36" version="26.1.1">
  <diagram name="Página-1" id="YJ1o-XMVsjhAURu67Rbc">
    <mxGraphModel dx="564" dy="1059" grid="0" gridSize="10" guides="1" tooltips="1" connect="1" arrows="1" fold="1" page="0" pageScale="1" pageWidth="827" pageHeight="1169" math="0" shadow="0">
      <root>
        <mxCell id="0" />
        <mxCell id="1" parent="0" />
        <mxCell id="Uk-OmYVXzjJBOCA94238-3" value="" style="edgeStyle=none;curved=1;rounded=0;orthogonalLoop=1;jettySize=auto;html=1;fontSize=12;startSize=8;endSize=8;" edge="1" parent="1" source="Uk-OmYVXzjJBOCA94238-1" target="Uk-OmYVXzjJBOCA94238-2">
          <mxGeometry relative="1" as="geometry" />
        </mxCell>
        <mxCell id="Uk-OmYVXzjJBOCA94238-1" value="&lt;font style=&quot;vertical-align: inherit;&quot;&gt;&lt;font style=&quot;vertical-align: inherit;&quot;&gt;inicio&lt;/font&gt;&lt;/font&gt;" style="ellipse;whiteSpace=wrap;html=1;" vertex="1" parent="1">
          <mxGeometry x="149" y="-47" width="120" height="80" as="geometry" />
        </mxCell>
        <mxCell id="Uk-OmYVXzjJBOCA94238-5" value="" style="edgeStyle=none;curved=1;rounded=0;orthogonalLoop=1;jettySize=auto;html=1;fontSize=12;startSize=8;endSize=8;" edge="1" parent="1" source="Uk-OmYVXzjJBOCA94238-2" target="Uk-OmYVXzjJBOCA94238-4">
          <mxGeometry relative="1" as="geometry" />
        </mxCell>
        <mxCell id="Uk-OmYVXzjJBOCA94238-2" value="&lt;font style=&quot;vertical-align: inherit;&quot;&gt;&lt;font style=&quot;vertical-align: inherit;&quot;&gt;&lt;font style=&quot;vertical-align: inherit;&quot;&gt;&lt;font style=&quot;vertical-align: inherit;&quot;&gt;&lt;font style=&quot;vertical-align: inherit;&quot;&gt;&lt;font style=&quot;vertical-align: inherit;&quot;&gt;cotação, valores reais&lt;/font&gt;&lt;/font&gt;&lt;/font&gt;&lt;/font&gt;&lt;/font&gt;&lt;/font&gt;" style="shape=parallelogram;perimeter=parallelogramPerimeter;whiteSpace=wrap;html=1;fixedSize=1;" vertex="1" parent="1">
          <mxGeometry x="131" y="105" width="158" height="60" as="geometry" />
        </mxCell>
        <mxCell id="Uk-OmYVXzjJBOCA94238-7" value="" style="edgeStyle=none;curved=1;rounded=0;orthogonalLoop=1;jettySize=auto;html=1;fontSize=12;startSize=8;endSize=8;" edge="1" parent="1" source="Uk-OmYVXzjJBOCA94238-4" target="Uk-OmYVXzjJBOCA94238-6">
          <mxGeometry relative="1" as="geometry" />
        </mxCell>
        <mxCell id="Uk-OmYVXzjJBOCA94238-4" value="&lt;font style=&quot;vertical-align: inherit;&quot;&gt;&lt;font style=&quot;vertical-align: inherit;&quot;&gt;&lt;font style=&quot;vertical-align: inherit;&quot;&gt;&lt;font style=&quot;vertical-align: inherit;&quot;&gt;&lt;font style=&quot;vertical-align: inherit;&quot;&gt;&lt;font style=&quot;vertical-align: inherit;&quot;&gt;&lt;font style=&quot;vertical-align: inherit;&quot;&gt;&lt;font style=&quot;vertical-align: inherit;&quot;&gt;resultado = (valorreais/cotacao)&lt;/font&gt;&lt;/font&gt;&lt;/font&gt;&lt;/font&gt;&lt;/font&gt;&lt;/font&gt;&lt;/font&gt;&lt;/font&gt;" style="whiteSpace=wrap;html=1;" vertex="1" parent="1">
          <mxGeometry x="149" y="227" width="120" height="60" as="geometry" />
        </mxCell>
        <mxCell id="Uk-OmYVXzjJBOCA94238-9" value="" style="edgeStyle=none;curved=1;rounded=0;orthogonalLoop=1;jettySize=auto;html=1;fontSize=12;startSize=8;endSize=8;" edge="1" parent="1" source="Uk-OmYVXzjJBOCA94238-6" target="Uk-OmYVXzjJBOCA94238-8">
          <mxGeometry relative="1" as="geometry" />
        </mxCell>
        <mxCell id="Uk-OmYVXzjJBOCA94238-6" value="&lt;font style=&quot;vertical-align: inherit;&quot;&gt;&lt;font style=&quot;vertical-align: inherit;&quot;&gt;resultado&lt;/font&gt;&lt;/font&gt;" style="shape=document;whiteSpace=wrap;html=1;boundedLbl=1;" vertex="1" parent="1">
          <mxGeometry x="149" y="349" width="120" height="80" as="geometry" />
        </mxCell>
        <mxCell id="Uk-OmYVXzjJBOCA94238-8" value="&lt;font style=&quot;vertical-align: inherit;&quot;&gt;&lt;font style=&quot;vertical-align: inherit;&quot;&gt;fim&lt;/font&gt;&lt;/font&gt;" style="ellipse;whiteSpace=wrap;html=1;" vertex="1" parent="1">
          <mxGeometry x="169" y="499" width="80" height="80" as="geometry" />
        </mxCell>
      </root>
    </mxGraphModel>
  </diagram>
</mxfile>
